<mxfile host="app.diagrams.net" modified="2022-10-19T10:46:32.138Z" agent="5.0 (Windows NT 10.0; Win64; x64) AppleWebKit/537.36 (KHTML, like Gecko) Chrome/106.0.0.0 Safari/537.36" etag="pSjnoKKTmx2VYcp3NgFc" version="20.4.0" type="github">
  <diagram id="prtHgNgQTEPvFCAcTncT" name="Page-1">
    <mxGraphModel dx="1422" dy="787" grid="0" gridSize="10" guides="1" tooltips="1" connect="1" arrows="1" fold="1" page="1" pageScale="1" pageWidth="827" pageHeight="1169" math="0" shadow="0">
      <root>
        <mxCell id="0" />
        <mxCell id="1" parent="0" />
        <mxCell id="aQXGcBQVBR7q9q05tRQI-16" style="edgeStyle=orthogonalEdgeStyle;rounded=0;orthogonalLoop=1;jettySize=auto;html=1;exitX=1;exitY=0.75;exitDx=0;exitDy=0;entryX=0;entryY=0.75;entryDx=0;entryDy=0;" edge="1" parent="1" source="aQXGcBQVBR7q9q05tRQI-2" target="aQXGcBQVBR7q9q05tRQI-3">
          <mxGeometry relative="1" as="geometry" />
        </mxCell>
        <mxCell id="aQXGcBQVBR7q9q05tRQI-2" value="Srouce File&lt;br&gt;&lt;br&gt;&lt;br&gt;&lt;br&gt;&lt;br&gt;&lt;br&gt;&lt;br&gt;&lt;br&gt;&lt;br&gt;" style="rounded=0;whiteSpace=wrap;html=1;" vertex="1" parent="1">
          <mxGeometry x="109" y="240" width="160" height="170" as="geometry" />
        </mxCell>
        <mxCell id="aQXGcBQVBR7q9q05tRQI-15" style="edgeStyle=orthogonalEdgeStyle;rounded=0;orthogonalLoop=1;jettySize=auto;html=1;exitX=0;exitY=0.25;exitDx=0;exitDy=0;entryX=1;entryY=0.25;entryDx=0;entryDy=0;" edge="1" parent="1" source="aQXGcBQVBR7q9q05tRQI-3" target="aQXGcBQVBR7q9q05tRQI-2">
          <mxGeometry relative="1" as="geometry" />
        </mxCell>
        <mxCell id="aQXGcBQVBR7q9q05tRQI-18" style="edgeStyle=orthogonalEdgeStyle;rounded=0;orthogonalLoop=1;jettySize=auto;html=1;entryX=0;entryY=0.75;entryDx=0;entryDy=0;startArrow=none;" edge="1" parent="1" target="aQXGcBQVBR7q9q05tRQI-4">
          <mxGeometry relative="1" as="geometry">
            <mxPoint x="490" y="368" as="sourcePoint" />
          </mxGeometry>
        </mxCell>
        <mxCell id="aQXGcBQVBR7q9q05tRQI-3" value="Source Maneger&lt;br&gt;&lt;br&gt;&lt;br&gt;" style="rounded=0;whiteSpace=wrap;html=1;" vertex="1" parent="1">
          <mxGeometry x="329" y="240" width="160" height="170" as="geometry" />
        </mxCell>
        <mxCell id="aQXGcBQVBR7q9q05tRQI-17" style="edgeStyle=orthogonalEdgeStyle;rounded=0;orthogonalLoop=1;jettySize=auto;html=1;exitX=0;exitY=0.25;exitDx=0;exitDy=0;entryX=1;entryY=0.25;entryDx=0;entryDy=0;" edge="1" parent="1" source="aQXGcBQVBR7q9q05tRQI-4" target="aQXGcBQVBR7q9q05tRQI-3">
          <mxGeometry relative="1" as="geometry" />
        </mxCell>
        <mxCell id="aQXGcBQVBR7q9q05tRQI-4" value="api server" style="rounded=0;whiteSpace=wrap;html=1;" vertex="1" parent="1">
          <mxGeometry x="649" y="240" width="70" height="170" as="geometry" />
        </mxCell>
        <mxCell id="aQXGcBQVBR7q9q05tRQI-44" style="edgeStyle=orthogonalEdgeStyle;rounded=0;orthogonalLoop=1;jettySize=auto;html=1;exitX=0.622;exitY=-0.012;exitDx=0;exitDy=0;entryX=0.72;entryY=1.142;entryDx=0;entryDy=0;entryPerimeter=0;fontSize=12;exitPerimeter=0;" edge="1" parent="1" source="aQXGcBQVBR7q9q05tRQI-7" target="aQXGcBQVBR7q9q05tRQI-26">
          <mxGeometry relative="1" as="geometry" />
        </mxCell>
        <mxCell id="aQXGcBQVBR7q9q05tRQI-7" value="Frontend Request Translator(IPC Api)" style="rounded=0;whiteSpace=wrap;html=1;" vertex="1" parent="1">
          <mxGeometry x="270" y="520" width="280" height="40" as="geometry" />
        </mxCell>
        <mxCell id="aQXGcBQVBR7q9q05tRQI-8" value="&lt;span style=&quot;background-color: rgb(255, 255, 255);&quot;&gt;Data Handler&lt;/span&gt;" style="rounded=0;whiteSpace=wrap;html=1;" vertex="1" parent="1">
          <mxGeometry x="270" y="560" width="280" height="80" as="geometry" />
        </mxCell>
        <mxCell id="aQXGcBQVBR7q9q05tRQI-13" style="edgeStyle=orthogonalEdgeStyle;rounded=0;orthogonalLoop=1;jettySize=auto;html=1;exitX=1;exitY=0.5;exitDx=0;exitDy=0;entryX=0.5;entryY=1;entryDx=0;entryDy=0;" edge="1" parent="1" source="aQXGcBQVBR7q9q05tRQI-9" target="aQXGcBQVBR7q9q05tRQI-4">
          <mxGeometry relative="1" as="geometry">
            <Array as="points">
              <mxPoint x="685" y="660" />
            </Array>
          </mxGeometry>
        </mxCell>
        <mxCell id="aQXGcBQVBR7q9q05tRQI-21" style="edgeStyle=orthogonalEdgeStyle;rounded=0;orthogonalLoop=1;jettySize=auto;html=1;exitX=0.25;exitY=1;exitDx=0;exitDy=0;entryX=0.25;entryY=0;entryDx=0;entryDy=0;" edge="1" parent="1" source="aQXGcBQVBR7q9q05tRQI-9" target="aQXGcBQVBR7q9q05tRQI-10">
          <mxGeometry relative="1" as="geometry" />
        </mxCell>
        <mxCell id="aQXGcBQVBR7q9q05tRQI-9" value="Frontend Request Filter" style="rounded=0;whiteSpace=wrap;html=1;" vertex="1" parent="1">
          <mxGeometry x="270" y="640" width="280" height="40" as="geometry" />
        </mxCell>
        <mxCell id="aQXGcBQVBR7q9q05tRQI-22" style="edgeStyle=orthogonalEdgeStyle;rounded=0;orthogonalLoop=1;jettySize=auto;html=1;exitX=0.75;exitY=0;exitDx=0;exitDy=0;entryX=0.75;entryY=1;entryDx=0;entryDy=0;" edge="1" parent="1" source="aQXGcBQVBR7q9q05tRQI-10" target="aQXGcBQVBR7q9q05tRQI-9">
          <mxGeometry relative="1" as="geometry" />
        </mxCell>
        <mxCell id="aQXGcBQVBR7q9q05tRQI-10" value="Data Handler In View" style="rounded=0;whiteSpace=wrap;html=1;" vertex="1" parent="1">
          <mxGeometry x="270" y="730" width="280" height="40" as="geometry" />
        </mxCell>
        <mxCell id="aQXGcBQVBR7q9q05tRQI-11" value="&lt;span style=&quot;background-color: rgb(255, 255, 255);&quot;&gt;View(React)&lt;/span&gt;" style="rounded=0;whiteSpace=wrap;html=1;" vertex="1" parent="1">
          <mxGeometry x="270" y="770" width="280" height="80" as="geometry" />
        </mxCell>
        <mxCell id="aQXGcBQVBR7q9q05tRQI-23" value="SQLite DB File" style="shape=cube;whiteSpace=wrap;html=1;boundedLbl=1;backgroundOutline=1;darkOpacity=0.05;darkOpacity2=0.1;" vertex="1" parent="1">
          <mxGeometry x="129" y="340" width="120" height="50" as="geometry" />
        </mxCell>
        <mxCell id="aQXGcBQVBR7q9q05tRQI-24" value="Static File" style="shape=cube;whiteSpace=wrap;html=1;boundedLbl=1;backgroundOutline=1;darkOpacity=0.05;darkOpacity2=0.1;" vertex="1" parent="1">
          <mxGeometry x="129" y="280" width="120" height="50" as="geometry" />
        </mxCell>
        <mxCell id="aQXGcBQVBR7q9q05tRQI-43" style="edgeStyle=orthogonalEdgeStyle;rounded=0;orthogonalLoop=1;jettySize=auto;html=1;exitX=0.25;exitY=1;exitDx=0;exitDy=0;entryX=0.354;entryY=0.029;entryDx=0;entryDy=0;entryPerimeter=0;fontSize=12;" edge="1" parent="1" source="aQXGcBQVBR7q9q05tRQI-26" target="aQXGcBQVBR7q9q05tRQI-7">
          <mxGeometry relative="1" as="geometry" />
        </mxCell>
        <mxCell id="aQXGcBQVBR7q9q05tRQI-26" value="IPC Server" style="rounded=0;whiteSpace=wrap;html=1;" vertex="1" parent="1">
          <mxGeometry x="329" y="390" width="160" height="20" as="geometry" />
        </mxCell>
        <mxCell id="aQXGcBQVBR7q9q05tRQI-27" value="" style="endArrow=none;dashed=1;html=1;dashPattern=1 3;strokeWidth=2;rounded=0;" edge="1" parent="1">
          <mxGeometry width="50" height="50" relative="1" as="geometry">
            <mxPoint x="40" y="470" as="sourcePoint" />
            <mxPoint x="760" y="470" as="targetPoint" />
          </mxGeometry>
        </mxCell>
        <mxCell id="aQXGcBQVBR7q9q05tRQI-28" value="&lt;b&gt;&lt;font style=&quot;font-size: 18px;&quot;&gt;Main Process&lt;/font&gt;&lt;/b&gt;" style="text;html=1;strokeColor=none;fillColor=none;align=center;verticalAlign=middle;whiteSpace=wrap;rounded=0;" vertex="1" parent="1">
          <mxGeometry x="720" y="320" width="100" height="30" as="geometry" />
        </mxCell>
        <mxCell id="aQXGcBQVBR7q9q05tRQI-29" value="&lt;b&gt;&lt;font style=&quot;font-size: 18px;&quot;&gt;Renderer Process&lt;/font&gt;&lt;/b&gt;" style="text;html=1;strokeColor=none;fillColor=none;align=center;verticalAlign=middle;whiteSpace=wrap;rounded=0;" vertex="1" parent="1">
          <mxGeometry x="720" y="640" width="100" height="30" as="geometry" />
        </mxCell>
        <mxCell id="aQXGcBQVBR7q9q05tRQI-30" value="&lt;font style=&quot;font-size: 12px;&quot;&gt;# Static FIle 中包含 HTML、CSS、JS、ZIP、JSON、IMG等&lt;/font&gt;" style="text;html=1;align=center;verticalAlign=middle;resizable=0;points=[];autosize=1;strokeColor=none;fillColor=none;fontSize=18;" vertex="1" parent="1">
          <mxGeometry x="47" y="62" width="350" height="40" as="geometry" />
        </mxCell>
        <mxCell id="aQXGcBQVBR7q9q05tRQI-31" value="# SQLite中存放字体、素材、资源路径等" style="text;html=1;align=center;verticalAlign=middle;resizable=0;points=[];autosize=1;strokeColor=none;fillColor=none;fontSize=12;" vertex="1" parent="1">
          <mxGeometry x="47" y="100" width="240" height="30" as="geometry" />
        </mxCell>
        <mxCell id="aQXGcBQVBR7q9q05tRQI-32" value="# Source Manager 中针对字体、素材图片等需要做额外处理，例如字体需要以id + type为关键字来进行绑定保存" style="text;html=1;align=center;verticalAlign=middle;resizable=0;points=[];autosize=1;strokeColor=none;fillColor=none;fontSize=12;" vertex="1" parent="1">
          <mxGeometry x="45" y="130" width="620" height="30" as="geometry" />
        </mxCell>
        <mxCell id="aQXGcBQVBR7q9q05tRQI-33" value="# Source File需要与Source Manager完全解耦，以支持数据包分发的业务场景" style="text;html=1;align=center;verticalAlign=middle;resizable=0;points=[];autosize=1;strokeColor=none;fillColor=none;fontSize=12;" vertex="1" parent="1">
          <mxGeometry x="50" y="160" width="430" height="30" as="geometry" />
        </mxCell>
        <mxCell id="aQXGcBQVBR7q9q05tRQI-34" value="待确认的点：" style="text;html=1;align=center;verticalAlign=middle;resizable=0;points=[];autosize=1;strokeColor=none;fillColor=none;fontSize=12;" vertex="1" parent="1">
          <mxGeometry x="60" y="895" width="100" height="30" as="geometry" />
        </mxCell>
        <mxCell id="aQXGcBQVBR7q9q05tRQI-35" value="IPC通信的频次上线、IPC单次通信的数据量" style="text;html=1;align=center;verticalAlign=middle;resizable=0;points=[];autosize=1;strokeColor=none;fillColor=none;fontSize=12;" vertex="1" parent="1">
          <mxGeometry x="92" y="925" width="260" height="30" as="geometry" />
        </mxCell>
        <mxCell id="aQXGcBQVBR7q9q05tRQI-37" value="SQLiite 的性能问题" style="text;html=1;align=center;verticalAlign=middle;resizable=0;points=[];autosize=1;strokeColor=none;fillColor=none;fontSize=12;" vertex="1" parent="1">
          <mxGeometry x="92" y="955" width="130" height="30" as="geometry" />
        </mxCell>
        <mxCell id="aQXGcBQVBR7q9q05tRQI-38" value="# 这套架构需要保证对日常前端人员的开发工作是透明的" style="text;html=1;align=center;verticalAlign=middle;resizable=0;points=[];autosize=1;strokeColor=none;fillColor=none;fontSize=12;" vertex="1" parent="1">
          <mxGeometry x="49" y="190" width="320" height="30" as="geometry" />
        </mxCell>
        <mxCell id="aQXGcBQVBR7q9q05tRQI-39" value="Request Proxy Server (Node.js)" style="rounded=0;whiteSpace=wrap;html=1;fontSize=12;" vertex="1" parent="1">
          <mxGeometry x="329" y="350" width="160" height="40" as="geometry" />
        </mxCell>
      </root>
    </mxGraphModel>
  </diagram>
</mxfile>
